<svg width="104" height="151" viewBox="0 0 104 151" fill="none" xmlns="http://www.w3.org/2000/svg">
<mask id="path-1-outside-1" maskUnits="userSpaceOnUse" x="0.792236" y="0" width="103" height="151" fill="black">
<rect fill="white" x="0.792236" width="103" height="151"/>
<path d="M52.0917 142.593C76.0052 142.593 95.391 123.207 95.391 99.2933C95.391 92.6716 93.4998 79.2932 89.3186 70.1929C85.1373 61.0925 77.1349 46.0394 60.6861 28.3599C64.0554 41.5602 71.9235 59.4619 71.9235 72.1335C71.9235 84.8051 64.0554 95.3729 64.0554 95.3729C66.2449 89.1768 67.7379 80.5808 67.0513 73.4507C66.3647 66.3206 61.3299 52.3767 56.8123 46.4217C56.8123 65.3135 51.7017 67.1411 45.8431 76.4022C39.9844 85.6632 41.6142 95.3729 41.6142 95.3729C38.1497 87.3947 37.9333 83.0438 39.618 77.0678C41.3027 71.0918 42.706 70.4682 48.2403 59.5127C53.7745 48.5572 55.5292 26.4467 50.5186 8C47.5413 24.7603 44.8616 31.6116 36.0072 44.4012C27.1529 57.1909 8.79224 66.1066 8.79224 95.3729C8.79224 119.286 28.1781 142.593 52.0917 142.593Z"/>
</mask>
<path d="M52.0917 142.593C76.0052 142.593 95.391 123.207 95.391 99.2933C95.391 92.6716 93.4998 79.2932 89.3186 70.1929C85.1373 61.0925 77.1349 46.0394 60.6861 28.3599C64.0554 41.5602 71.9235 59.4619 71.9235 72.1335C71.9235 84.8051 64.0554 95.3729 64.0554 95.3729C66.2449 89.1768 67.7379 80.5808 67.0513 73.4507C66.3647 66.3206 61.3299 52.3767 56.8123 46.4217C56.8123 65.3135 51.7017 67.1411 45.8431 76.4022C39.9844 85.6632 41.6142 95.3729 41.6142 95.3729C38.1497 87.3947 37.9333 83.0438 39.618 77.0678C41.3027 71.0918 42.706 70.4682 48.2403 59.5127C53.7745 48.5572 55.5292 26.4467 50.5186 8C47.5413 24.7603 44.8616 31.6116 36.0072 44.4012C27.1529 57.1909 8.79224 66.1066 8.79224 95.3729C8.79224 119.286 28.1781 142.593 52.0917 142.593Z" fill="url(#paint0_linear)"/>
<path d="M52.0917 142.593C76.0052 142.593 95.391 123.207 95.391 99.2933C95.391 92.6716 93.4998 79.2932 89.3186 70.1929C85.1373 61.0925 77.1349 46.0394 60.6861 28.3599C64.0554 41.5602 71.9235 59.4619 71.9235 72.1335C71.9235 84.8051 64.0554 95.3729 64.0554 95.3729C66.2449 89.1768 67.7379 80.5808 67.0513 73.4507C66.3647 66.3206 61.3299 52.3767 56.8123 46.4217C56.8123 65.3135 51.7017 67.1411 45.8431 76.4022C39.9844 85.6632 41.6142 95.3729 41.6142 95.3729C38.1497 87.3947 37.9333 83.0438 39.618 77.0678C41.3027 71.0918 42.706 70.4682 48.2403 59.5127C53.7745 48.5572 55.5292 26.4467 50.5186 8C47.5413 24.7603 44.8616 31.6116 36.0072 44.4012C27.1529 57.1909 8.79224 66.1066 8.79224 95.3729C8.79224 119.286 28.1781 142.593 52.0917 142.593Z" stroke="#101217" stroke-width="16" stroke-linejoin="round" mask="url(#path-1-outside-1)"/>
<defs>
<linearGradient id="paint0_linear" x1="52.0916" y1="8" x2="52.0916" y2="158.06" gradientUnits="userSpaceOnUse">
<stop stop-color="#FC7C34"/>
<stop offset="1" stop-color="#DD342F"/>
</linearGradient>
</defs>
</svg>
