<svg width="119" height="139" viewBox="0 0 119 139" fill="none" xmlns="http://www.w3.org/2000/svg">
<mask id="path-1-outside-1" maskUnits="userSpaceOnUse" x="-0.425781" y="-0.976074" width="120" height="140" fill="black">
<rect fill="white" x="-0.425781" y="-0.976074" width="120" height="140"/>
<path d="M51.7471 22.2889C61.2934 13.6938 77.0706 6.22837 95.9378 8.40603C90.198 11.6032 89.7507 22.2889 95.9378 28.7555C102.125 35.2221 111.641 50.6422 110.966 64.4367C110.291 78.2311 110.519 93.3173 85.0754 116.179C63.2801 135.762 21.8231 133.689 8.57422 119.355C20.4033 122.833 35.5868 125.437 41.6705 113.315C46.8531 102.987 31.3236 87.7731 31.2577 64.4367C31.1918 41.1002 45.2025 28.1814 51.7471 22.2889Z"/>
</mask>
<path d="M51.7471 22.2889C61.2934 13.6938 77.0706 6.22837 95.9378 8.40603C90.198 11.6032 89.7507 22.2889 95.9378 28.7555C102.125 35.2221 111.641 50.6422 110.966 64.4367C110.291 78.2311 110.519 93.3173 85.0754 116.179C63.2801 135.762 21.8231 133.689 8.57422 119.355C20.4033 122.833 35.5868 125.437 41.6705 113.315C46.8531 102.987 31.3236 87.7731 31.2577 64.4367C31.1918 41.1002 45.2025 28.1814 51.7471 22.2889Z" fill="url(#paint0_linear)"/>
<path d="M51.7471 22.2889C61.2934 13.6938 77.0706 6.22837 95.9378 8.40603C90.198 11.6032 89.7507 22.2889 95.9378 28.7555C102.125 35.2221 111.641 50.6422 110.966 64.4367C110.291 78.2311 110.519 93.3173 85.0754 116.179C63.2801 135.762 21.8231 133.689 8.57422 119.355C20.4033 122.833 35.5868 125.437 41.6705 113.315C46.8531 102.987 31.3236 87.7731 31.2577 64.4367C31.1918 41.1002 45.2025 28.1814 51.7471 22.2889Z" stroke="#101217" stroke-width="16" stroke-linejoin="round" mask="url(#path-1-outside-1)"/>
<defs>
<linearGradient id="paint0_linear" x1="59.2231" y1="0.855609" x2="59.2231" y2="130.513" gradientUnits="userSpaceOnUse">
<stop stop-color="#83D75C"/>
<stop offset="1" stop-color="#2D8A31"/>
</linearGradient>
</defs>
</svg>
