<svg width="140" height="150" viewBox="0 0 140 150" fill="none" xmlns="http://www.w3.org/2000/svg">
<mask id="path-1-outside-1" maskUnits="userSpaceOnUse" x="0.724121" y="0.679932" width="139" height="150" fill="black">
<rect fill="white" x="0.724121" y="0.679932" width="139" height="150"/>
<path d="M113.707 68.7546C113.463 65.9719 112.976 62.4828 112.175 58.129C110.922 51.3222 104.771 36.6022 90.164 28.0993C85.3229 25.2812 80.9434 22.9677 76.989 20.8788C69.0116 16.6648 62.7643 13.3646 57.9482 8.67993C62.7505 14.4856 65.9521 19.2904 69.9541 22.4936C72.6822 24.6772 76.1541 27.791 81.4475 31.4547C74.1931 28.1892 65.9624 27.2556 56.5475 28.0993C49.7378 28.7094 40.5534 32.5735 31.6165 36.3335C22.9588 39.976 14.5333 43.5209 8.72412 43.9149C20.2558 45.4036 30.7886 41.0172 41.7394 38.3619C39.4526 39.9655 36.6747 42.1321 33.3055 45.0049C28.0405 49.4943 18.3746 62.1837 18.3187 79.0917C18.3002 84.6954 18.4876 89.6468 18.6568 94.1176C18.9981 103.137 19.2655 110.2 17.6187 116.715C20.2427 109.651 22.8007 104.475 23.5722 99.4054C24.0981 95.9498 25.0573 91.3846 25.5816 84.9662C26.3825 92.8846 29.69 100.483 35.128 108.218C39.0612 113.814 46.9983 119.839 54.7216 125.702C62.2036 131.382 69.4849 136.91 72.7308 141.746C68.2532 131.01 59.1896 124.078 51.4158 115.917C53.947 117.097 57.2108 118.42 61.3811 119.903C67.8997 122.22 83.7165 124.25 98.3798 115.845C103.239 113.059 107.432 110.421 111.217 108.039C118.853 103.234 124.833 99.4704 131.296 97.6395C123.87 98.8979 118.11 99.2698 113.336 101.136C110.082 102.408 105.651 103.86 99.8332 106.614C106.287 101.961 111.21 95.2964 115.187 86.7168C118.063 80.5113 119.311 70.6213 120.524 60.9978C121.7 51.675 122.844 42.6021 125.407 37.3716C118.353 46.6191 116.884 57.9385 113.707 68.7546Z"/>
</mask>
<path d="M113.707 68.7546C113.463 65.9719 112.976 62.4828 112.175 58.129C110.922 51.3222 104.771 36.6022 90.164 28.0993C85.3229 25.2812 80.9434 22.9677 76.989 20.8788C69.0116 16.6648 62.7643 13.3646 57.9482 8.67993C62.7505 14.4856 65.9521 19.2904 69.9541 22.4936C72.6822 24.6772 76.1541 27.791 81.4475 31.4547C74.1931 28.1892 65.9624 27.2556 56.5475 28.0993C49.7378 28.7094 40.5534 32.5735 31.6165 36.3335C22.9588 39.976 14.5333 43.5209 8.72412 43.9149C20.2558 45.4036 30.7886 41.0172 41.7394 38.3619C39.4526 39.9655 36.6747 42.1321 33.3055 45.0049C28.0405 49.4943 18.3746 62.1837 18.3187 79.0917C18.3002 84.6954 18.4876 89.6468 18.6568 94.1176C18.9981 103.137 19.2655 110.2 17.6187 116.715C20.2427 109.651 22.8007 104.475 23.5722 99.4054C24.0981 95.9498 25.0573 91.3846 25.5816 84.9662C26.3825 92.8846 29.69 100.483 35.128 108.218C39.0612 113.814 46.9983 119.839 54.7216 125.702C62.2036 131.382 69.4849 136.91 72.7308 141.746C68.2532 131.01 59.1896 124.078 51.4158 115.917C53.947 117.097 57.2108 118.42 61.3811 119.903C67.8997 122.22 83.7165 124.25 98.3798 115.845C103.239 113.059 107.432 110.421 111.217 108.039C118.853 103.234 124.833 99.4704 131.296 97.6395C123.87 98.8979 118.11 99.2698 113.336 101.136C110.082 102.408 105.651 103.86 99.8332 106.614C106.287 101.961 111.21 95.2964 115.187 86.7168C118.063 80.5113 119.311 70.6213 120.524 60.9978C121.7 51.675 122.844 42.6021 125.407 37.3716C118.353 46.6191 116.884 57.9385 113.707 68.7546Z" fill="url(#paint0_linear)"/>
<path d="M113.707 68.7546C113.463 65.9719 112.976 62.4828 112.175 58.129C110.922 51.3222 104.771 36.6022 90.164 28.0993C85.3229 25.2812 80.9434 22.9677 76.989 20.8788C69.0116 16.6648 62.7643 13.3646 57.9482 8.67993C62.7505 14.4856 65.9521 19.2904 69.9541 22.4936C72.6822 24.6772 76.1541 27.791 81.4475 31.4547C74.1931 28.1892 65.9624 27.2556 56.5475 28.0993C49.7378 28.7094 40.5534 32.5735 31.6165 36.3335C22.9588 39.976 14.5333 43.5209 8.72412 43.9149C20.2558 45.4036 30.7886 41.0172 41.7394 38.3619C39.4526 39.9655 36.6747 42.1321 33.3055 45.0049C28.0405 49.4943 18.3746 62.1837 18.3187 79.0917C18.3002 84.6954 18.4876 89.6468 18.6568 94.1176C18.9981 103.137 19.2655 110.2 17.6187 116.715C20.2427 109.651 22.8007 104.475 23.5722 99.4054C24.0981 95.9498 25.0573 91.3846 25.5816 84.9662C26.3825 92.8846 29.69 100.483 35.128 108.218C39.0612 113.814 46.9983 119.839 54.7216 125.702C62.2036 131.382 69.4849 136.91 72.7308 141.746C68.2532 131.01 59.1896 124.078 51.4158 115.917C53.947 117.097 57.2108 118.42 61.3811 119.903C67.8997 122.22 83.7165 124.25 98.3798 115.845C103.239 113.059 107.432 110.421 111.217 108.039C118.853 103.234 124.833 99.4704 131.296 97.6395C123.87 98.8979 118.11 99.2698 113.336 101.136C110.082 102.408 105.651 103.86 99.8332 106.614C106.287 101.961 111.21 95.2964 115.187 86.7168C118.063 80.5113 119.311 70.6213 120.524 60.9978C121.7 51.675 122.844 42.6021 125.407 37.3716C118.353 46.6191 116.884 57.9385 113.707 68.7546Z" stroke="#101217" stroke-width="16" stroke-linejoin="round" mask="url(#path-1-outside-1)"/>
<defs>
<linearGradient id="paint0_linear" x1="70.0102" y1="8.67993" x2="67.4427" y2="141.697" gradientUnits="userSpaceOnUse">
<stop stop-color="#F9D65B"/>
<stop offset="1" stop-color="#FC7C34"/>
</linearGradient>
</defs>
</svg>
