<svg width="136" height="132" viewBox="0 0 136 132" fill="none" xmlns="http://www.w3.org/2000/svg">
<mask id="path-1-outside-1" maskUnits="userSpaceOnUse" x="0" y="0.141113" width="136" height="132" fill="black">
<rect fill="white" y="0.141113" width="136" height="132"/>
<path fill-rule="evenodd" clip-rule="evenodd" d="M36.5095 31.9246C46.2295 18.4983 62.032 9.76394 79.8746 9.76394C81.2207 9.76394 82.5552 9.81366 83.8764 9.91136C79.5038 8.75639 74.9119 8.14111 70.1763 8.14111C40.629 8.14111 16.6761 32.094 16.6761 61.6413C16.6761 87.5905 35.1504 109.225 59.6638 114.109C59.941 114.168 60.219 114.224 60.4979 114.277C33.2559 113.605 11.006 92.8127 8.0462 66.1984C8.0155 66.9543 8 67.7141 8 68.4775C8 98.9612 32.712 123.673 63.1958 123.673C93.6795 123.673 118.392 98.9612 118.392 68.4775C118.392 64.2558 117.918 60.1448 117.02 56.1948C121.021 64.9817 122.65 74.9745 121.207 85.244C119.694 96.0084 115.02 105.55 108.255 113.063C118.122 104.835 125.083 93.0584 127.012 79.3347C131.136 49.9925 110.692 22.8629 81.3499 18.7391C75.7832 17.9567 70.2961 18.0586 65.0306 18.9378C54.0255 19.9866 44.0993 24.7348 36.5095 31.9246Z"/>
</mask>
<path fill-rule="evenodd" clip-rule="evenodd" d="M36.5095 31.9246C46.2295 18.4983 62.032 9.76394 79.8746 9.76394C81.2207 9.76394 82.5552 9.81366 83.8764 9.91136C79.5038 8.75639 74.9119 8.14111 70.1763 8.14111C40.629 8.14111 16.6761 32.094 16.6761 61.6413C16.6761 87.5905 35.1504 109.225 59.6638 114.109C59.941 114.168 60.219 114.224 60.4979 114.277C33.2559 113.605 11.006 92.8127 8.0462 66.1984C8.0155 66.9543 8 67.7141 8 68.4775C8 98.9612 32.712 123.673 63.1958 123.673C93.6795 123.673 118.392 98.9612 118.392 68.4775C118.392 64.2558 117.918 60.1448 117.02 56.1948C121.021 64.9817 122.65 74.9745 121.207 85.244C119.694 96.0084 115.02 105.55 108.255 113.063C118.122 104.835 125.083 93.0584 127.012 79.3347C131.136 49.9925 110.692 22.8629 81.3499 18.7391C75.7832 17.9567 70.2961 18.0586 65.0306 18.9378C54.0255 19.9866 44.0993 24.7348 36.5095 31.9246Z" fill="url(#paint0_linear)"/>
<path d="M36.5095 31.9246L30.0294 27.2334C27.6071 30.5793 28.1305 35.2193 31.2373 37.9416C34.344 40.6638 39.0126 40.5732 42.0113 37.7324L36.5095 31.9246ZM83.8764 9.91136L83.2865 17.8896C87.4081 18.1944 91.0834 15.3095 91.7664 11.2335C92.4494 7.15745 89.9153 3.23208 85.9195 2.17663L83.8764 9.91136ZM59.6638 114.109L61.3145 106.281C61.2854 106.275 61.2563 106.269 61.2271 106.263L59.6638 114.109ZM60.4979 114.277L60.3006 122.275C64.4613 122.378 68.0058 119.273 68.4519 115.135C68.8979 110.997 66.0966 107.208 62.0095 106.421L60.4979 114.277ZM8.0462 66.1984L15.9972 65.3142C15.5348 61.1561 11.9467 58.0566 7.76559 58.2033C3.5845 58.3501 0.222565 61.6935 0.0527882 65.8738L8.0462 66.1984ZM117.02 56.1948L124.301 52.8795C122.6 49.1453 118.35 47.3029 114.463 48.6145C110.575 49.9262 108.31 53.9665 109.219 57.9675L117.02 56.1948ZM121.207 85.244L129.129 86.3574L129.129 86.3574L121.207 85.244ZM108.255 113.063L102.31 107.71C99.502 110.829 99.5813 115.588 102.492 118.611C105.403 121.635 110.155 121.895 113.379 119.207L108.255 113.063ZM127.012 79.3347L119.09 78.2213L119.09 78.2213L127.012 79.3347ZM81.3499 18.7391L82.4633 10.817L82.4633 10.817L81.3499 18.7391ZM65.0306 18.9378L65.7896 26.9017C65.9766 26.8839 66.1629 26.8595 66.3481 26.8286L65.0306 18.9378ZM79.8746 1.76394C59.358 1.76394 41.1892 11.8182 30.0294 27.2334L42.9897 36.6159C51.2699 25.1784 64.7061 17.7639 79.8746 17.7639V1.76394ZM84.4664 1.93314C82.9491 1.82094 81.4178 1.76394 79.8746 1.76394V17.7639C81.0237 17.7639 82.1614 17.8064 83.2865 17.8896L84.4664 1.93314ZM70.1763 16.1411C74.2163 16.1411 78.1217 16.6657 81.8334 17.6461L85.9195 2.17663C80.886 0.847098 75.6076 0.141113 70.1763 0.141113V16.1411ZM24.6761 61.6413C24.6761 36.5123 45.0472 16.1411 70.1763 16.1411V0.141113C36.2107 0.141113 8.6761 27.6757 8.6761 61.6413H24.6761ZM61.2271 106.263C40.3829 102.11 24.6761 83.7011 24.6761 61.6413H8.6761C8.6761 91.4799 29.9179 116.339 58.1006 121.955L61.2271 106.263ZM62.0095 106.421C61.7771 106.377 61.5455 106.33 61.3145 106.281L58.0131 121.937C58.3365 122.005 58.6609 122.071 58.9864 122.133L62.0095 106.421ZM0.095217 67.0827C3.49344 97.6387 29.0242 121.503 60.3006 122.275L60.6953 106.28C37.4876 105.707 18.5187 87.9867 15.9972 65.3142L0.095217 67.0827ZM16 68.4775C16 67.8223 16.0133 67.1708 16.0396 66.523L0.0527882 65.8738C0.0176978 66.7377 0 67.6058 0 68.4775H16ZM63.1958 115.673C37.1303 115.673 16 94.543 16 68.4775H0C0 103.38 28.2937 131.673 63.1958 131.673V115.673ZM110.392 68.4775C110.392 94.543 89.2612 115.673 63.1958 115.673V131.673C98.0978 131.673 126.392 103.38 126.392 68.4775H110.392ZM109.219 57.9675C109.985 61.3399 110.392 64.8563 110.392 68.4775H126.392C126.392 63.6552 125.85 58.9497 124.821 54.422L109.219 57.9675ZM129.129 86.3574C130.79 74.5365 128.914 63.0104 124.301 52.8795L109.739 59.5101C113.128 66.9531 114.51 75.4125 113.285 84.1306L129.129 86.3574ZM114.201 118.416C121.999 109.756 127.387 98.7494 129.129 86.3574L113.285 84.1306C112.001 93.2674 108.042 101.344 102.31 107.71L114.201 118.416ZM119.09 78.2213C117.448 89.9034 111.533 99.9131 103.132 106.919L113.379 119.207C124.711 109.758 132.718 96.2134 134.934 80.4481L119.09 78.2213ZM80.2366 26.6612C105.204 30.1701 122.599 53.2544 119.09 78.2213L134.934 80.4481C139.673 46.7306 116.181 15.5556 82.4633 10.817L80.2366 26.6612ZM66.3481 26.8286C70.819 26.0821 75.4863 25.9936 80.2366 26.6612L82.4633 10.817C76.0801 9.91985 69.7732 10.0352 63.7131 11.047L66.3481 26.8286ZM42.0113 37.7324C48.3505 31.7272 56.6232 27.7753 65.7896 26.9017L64.2716 10.9739C51.4279 12.1979 39.8481 17.7423 31.0078 26.1169L42.0113 37.7324Z" fill="#101217" mask="url(#path-1-outside-1)"/>
<defs>
<linearGradient id="paint0_linear" x1="67.7704" y1="-40.0499" x2="67.7704" y2="133.537" gradientUnits="userSpaceOnUse">
<stop stop-color="#9145CD"/>
<stop offset="1" stop-color="#5435AD"/>
</linearGradient>
</defs>
</svg>
