<svg width="111" height="142" viewBox="0 0 111 142" fill="none" xmlns="http://www.w3.org/2000/svg">
<mask id="path-1-outside-1" maskUnits="userSpaceOnUse" x="-0.15625" y="-0.648193" width="111" height="142" fill="black">
<rect fill="white" x="-0.15625" y="-0.648193" width="111" height="142"/>
<path d="M102.36 89.456C102.36 113.697 82.7088 133.348 58.468 133.348C34.2271 133.348 15.537 109.894 11.638 95.1268C4.81143 69.2729 11.7149 50.9425 19.264 37.6418C26.8131 24.3412 51.7652 2.05865 81.0554 10.0312C60.6217 10.0312 47.9163 18.935 47.9163 31.9688C47.9163 38.0685 53.4698 44.809 63.1897 47.0248C83.2683 51.6022 102.36 62.9007 102.36 89.456Z"/>
<path d="M78.9175 37.6418C83.1697 37.6418 86.6168 34.1947 86.6168 29.9426C86.6168 25.6904 83.1697 22.2433 78.9175 22.2433C74.6653 22.2433 71.2182 25.6904 71.2182 29.9426C71.2182 34.1947 74.6653 37.6418 78.9175 37.6418Z"/>
</mask>
<path d="M102.36 89.456C102.36 113.697 82.7088 133.348 58.468 133.348C34.2271 133.348 15.537 109.894 11.638 95.1268C4.81143 69.2729 11.7149 50.9425 19.264 37.6418C26.8131 24.3412 51.7652 2.05865 81.0554 10.0312C60.6217 10.0312 47.9163 18.935 47.9163 31.9688C47.9163 38.0685 53.4698 44.809 63.1897 47.0248C83.2683 51.6022 102.36 62.9007 102.36 89.456Z" fill="url(#paint0_linear)"/>
<path d="M78.9175 37.6418C83.1697 37.6418 86.6168 34.1947 86.6168 29.9426C86.6168 25.6904 83.1697 22.2433 78.9175 22.2433C74.6653 22.2433 71.2182 25.6904 71.2182 29.9426C71.2182 34.1947 74.6653 37.6418 78.9175 37.6418Z" fill="url(#paint1_linear)"/>
<path d="M102.36 89.456C102.36 113.697 82.7088 133.348 58.468 133.348C34.2271 133.348 15.537 109.894 11.638 95.1268C4.81143 69.2729 11.7149 50.9425 19.264 37.6418C26.8131 24.3412 51.7652 2.05865 81.0554 10.0312C60.6217 10.0312 47.9163 18.935 47.9163 31.9688C47.9163 38.0685 53.4698 44.809 63.1897 47.0248C83.2683 51.6022 102.36 62.9007 102.36 89.456Z" stroke="#101217" stroke-width="16" stroke-linejoin="round" mask="url(#path-1-outside-1)"/>
<path d="M78.9175 37.6418C83.1697 37.6418 86.6168 34.1947 86.6168 29.9426C86.6168 25.6904 83.1697 22.2433 78.9175 22.2433C74.6653 22.2433 71.2182 25.6904 71.2182 29.9426C71.2182 34.1947 74.6653 37.6418 78.9175 37.6418Z" stroke="#101217" stroke-width="16" stroke-linejoin="round" mask="url(#path-1-outside-1)"/>
<defs>
<linearGradient id="paint0_linear" x1="56.5865" y1="7.10941" x2="56.5865" y2="133.348" gradientUnits="userSpaceOnUse">
<stop stop-color="#3BA0FD"/>
<stop offset="1" stop-color="#3B42F4"/>
</linearGradient>
<linearGradient id="paint1_linear" x1="56.5865" y1="7.10941" x2="56.5865" y2="133.348" gradientUnits="userSpaceOnUse">
<stop stop-color="#3BA0FD"/>
<stop offset="1" stop-color="#3B42F4"/>
</linearGradient>
</defs>
</svg>
